:SAMPLES-PER-SECOND 30
:FULLY-SPECIFIED
:DEGREES
388
root  54.6035 33.5822 24.352 -169.586 -43.5764 176.907
RightUpLeg  -15.1039 -18.4756 -1.7298
RightLeg  21.0069 -7.8712 -2.44603
RightFoot  -3.33211 0.00671081 0.608397
RightToes  -31.9077 -0.157276 -0.265004
Spine  7.58117 1.52823 2.45362
Spine1  14.5836 4.13564 2.46643
HEad  1.39719 3.13356 1.49751
LeftShoulder1  0 -2.42657e-020 -4.95415e-022
LeftArm  -6.95128 7.32494 -86.7933
LeftForeArm  45.4849 -46.4817 -10.6975
LeftHand  -0.45185 -10.0417 4.773
RightShoulder  0 2.42657e-020 1.07489e-018
RightArm  -24.4266 3.46835 71.514
RightForeArm  34.7062 37.0473 7.64647
RightHand  -1.63329 18.6204 -9.57169
LeftUpLeg  -30.9196 -3.56372 -2.24302
LeftLeg  30.5763 -1.62973 -0.830244
LeftFoot  1.91417 -0.000831638 0.0497723
LeftToes  -26.3333 9.37529e-007 1.1992e-007
389
root  54.6674 33.5167 23.7768 -169.691 -44.4765 177.666
RightUpLeg  -14.4274 -17.8039 -0.417214
RightLeg  20.4939 -9.39033 -2.82117
RightFoot  -4.12101 0.0168228 0.845273
RightToes  -30.5046 -0.147411 -0.255458
Spine  7.88223 2.05939 2.75087
Spine1  15.304 5.64998 2.29572
HEad  0.986655 3.35713 1.53371
LeftShoulder1  0 -2.42657e-020 -4.95415e-022
LeftArm  -9.23537 7.44699 -87.7527
LeftForeArm  44.5985 -43.4885 -9.61963
LeftHand  -0.356658 -9.62496 3.86716
RightShoulder  0 2.42657e-020 1.07489e-018
RightArm  -26.4549 6.78354 71.3577
RightForeArm  37.0303 34.476 6.94693
RightHand  -1.42433 18.8694 -8.18869
LeftUpLeg  -32.8698 -0.72254 -4.41042
LeftLeg  25.5099 -4.08651 -1.63806
LeftFoot  2.55753 0.000925921 -0.0414886
LeftToes  -29.6688 9.37529e-007 1.1992e-007
390
root  54.6449 33.4595 23.1056 -169.74 -44.2532 178.493
RightUpLeg  -13.306 -16.6989 0.847592
RightLeg  18.9855 -10.2489 -2.78514
RightFoot  -4.61847 0.0247424 0.99126
RightToes  -29.5256 -0.140668 -0.248655
Spine  8.02511 2.59383 2.80328
Spine1  15.7206 7.08843 1.89046
HEad  0.992092 3.97468 1.05802
LeftShoulder1  0 -2.42657e-020 -4.95415e-022
LeftArm  -12.626 8.07745 -88.3478
LeftForeArm  44.4382 -39.4225 -8.31928
LeftHand  -0.247197 -9.19774 2.70447
RightShoulder  0 2.42657e-020 1.07489e-018
RightArm  -27.139 9.78243 71.8357
RightForeArm  38.8532 32.3699 6.40621
RightHand  -1.40433 19.4359 -7.81916
LeftUpLeg  -34.1474 4.97711 -7.56752
LeftLeg  19.5207 -8.02773 -2.27116
LeftFoot  2.69035 0.00502882 -0.214165
LeftToes  -34.5481 9.37529e-007 1.1992e-007
391
root  54.5925 33.389 22.4374 -169.854 -43.5038 179.649
RightUpLeg  -12.3098 -15.5842 2.28044
RightLeg  17.2764 -10.6116 -2.54683
RightFoot  -4.86496 0.0285948 1.05082
RightToes  -29.2385 -0.138712 -0.246638
Spine  7.92188 3.06628 2.76062
Spine1  15.6426 8.29457 1.52337
HEad  1.47239 4.74123 0.726198
LeftShoulder1  0 -2.42657e-020 -4.95415e-022
LeftArm  -17.082 8.86509 -88.7909
LeftForeArm  44.9308 -34.0533 -6.82293
LeftHand  -0.14847 -9.14189 1.4881
RightShoulder  0 2.42657e-020 1.07489e-018
RightArm  -26.506 11.7705 72.7838
RightForeArm  40.1081 31.3174 6.14524
RightHand  -1.51589 19.692 -8.35059
LeftUpLeg  -35.3542 8.54764 -9.63671
LeftLeg  14.0322 -7.26678 -1.32503
LeftFoot  -0.251805 0.000368178 0.167538
LeftToes  -31.3156 9.37529e-007 1.1992e-007
392
root  54.4791 33.302 21.6523 -170.337 -42.783 -178.816
RightUpLeg  -10.6206 -14.7223 3.94388
RightLeg  14.9688 -10.6945 -2.11742
RightFoot  -4.95887 0.0289244 1.04567
RightToes  -28.5251 -0.133898 -0.241586
Spine  7.68736 3.33746 2.64027
Spine1  15.2635 8.96527 1.21219
HEad  1.91717 4.80949 1.16434
LeftShoulder1  0 -2.42657e-020 -4.95415e-022
LeftArm  -23.5298 9.77427 -88.8718
LeftForeArm  48.1707 -28.177 -5.39056
LeftHand  -0.0337494 -9.34473 0.0430238
RightShoulder  0 2.42657e-020 1.07489e-018
RightArm  -24.9824 12.8759 74.3877
RightForeArm  40.5159 30.8824 6.03926
RightHand  -1.6001 19.8204 -8.77249
LeftUpLeg  -36.0946 10.8783 -10.4355
LeftLeg  10.4422 -3.61165 -0.42905
LeftFoot  -3.54276 0.0092107 0.297818
LeftToes  -24.7909 9.37529e-007 1.1992e-007
393
root  54.3238 33.1847 20.7901 -170.893 -41.4243 -177.494
RightUpLeg  -8.62133 -12.9912 5.3456
RightLeg  12.8483 -11.0396 -1.7656
RightFoot  -5.30479 0.0337145 1.10545
RightToes  -27.3605 -0.126174 -0.233209
Spine  7.52835 3.5448 2.29797
Spine1  14.9255 9.41324 0.642749
HEad  2.1408 4.26349 2.16374
LeftShoulder1  0 -2.42657e-020 -4.95415e-022
LeftArm  -31.1927 10.807 -88.1605
LeftForeArm  52.9805 -23.1449 -4.28459
LeftHand  0.0612819 -9.5039 -1.10794
RightShoulder  0 2.42657e-020 1.07489e-018
RightArm  -22.4194 13.6348 76.5506
RightForeArm  40.3772 30.8402 6.02925
RightHand  -1.61972 19.8 -8.89383
LeftUpLeg  -36.1175 11.6592 -9.63082
LeftLeg  10.3563 -0.642357 -0.0763656
LeftFoot  -3.87834 0.00404926 0.119587
LeftToes  -24.0068 9.37529e-007 1.1992e-007
394
root  54.0495 33.0276 19.8556 -171.482 -41.1296 -176.497
RightUpLeg  -6.17552 -12.925 6.42399
RightLeg  10.9489 -10.831 -1.36834
RightFoot  -6.01661 0.0425089 1.18655
RightToes  -26.7465 -0.122171 -0.22873
Spine  7.29107 3.31961 1.80959
Spine1  14.3174 8.89044 -0.095527
HEad  2.68857 1.99439 4.9061
LeftShoulder1  0 -2.42657e-020 -4.95415e-022
LeftArm  -39.1811 12.3677 -86.6343
LeftForeArm  59.0241 -19.4154 -3.5138
LeftHand  0.0584522 -9.25674 -1.09278
RightShoulder  0 2.42657e-020 1.07489e-018
RightArm  -19.7121 13.4388 79.1873
RightForeArm  40.0165 30.9344 6.05244
RightHand  -1.57906 20.0805 -8.5339
LeftUpLeg  -35.5989 10.1768 -7.70252
LeftLeg  14.0581 -1.17652 -0.217048
LeftFoot  -2.8644 0.00447818 0.179105
LeftToes  -20.0575 9.37529e-007 1.1992e-007
395
root  53.6755 32.8731 18.9171 -171.723 -40.1277 -176.779
RightUpLeg  -3.99311 -11.7338 6.3101
RightLeg  10.7487 -11.175 -1.3718
RightFoot  -7.50758 0.0731752 1.49296
RightToes  -25.1483 -0.111978 -0.216872
Spine  7.19976 3.26524 0.874413
Spine1  13.794 8.88516 -1.84054
HEad  2.98456 -1.35429 8.36044
LeftShoulder1  0 -2.42657e-020 -4.95415e-022
LeftArm  -47.9555 14.1543 -84.5674
LeftForeArm  65.5257 -17.0999 -3.04631
LeftHand  0.0340802 -8.25544 -0.842896
RightShoulder  0 2.42657e-020 1.07489e-018
RightArm  -16.2628 12.4518 81.9848
RightForeArm  39.6512 31.0971 6.09227
RightHand  -1.49313 20.3512 -7.93717
LeftUpLeg  -34.2879 8.67207 -6.59134
LeftLeg  15.9119 -2.57371 -0.559527
LeftFoot  -5.07159 0.0149603 0.337794
LeftToes  -10.2521 9.37529e-007 1.1992e-007
396
root  53.2813 32.7718 18.0376 -170.958 -40.9402 -177.885
RightUpLeg  -2.73357 -11.0792 5.94982
RightLeg  11.3537 -12.893 -1.71619
RightFoot  -9.14837 0.136374 2.08216
RightToes  -23.3018 -0.100619 -0.202825
Spine  6.99019 2.70325 -0.198548
Spine1  12.968 7.86062 -3.90501
HEad  2.24591 -4.5869 11.8785
LeftShoulder1  0 -2.42657e-020 -4.95415e-022
LeftArm  -54.3483 16.2054 -81.927
LeftForeArm  68.9167 -16.0465 -2.83593
LeftHand  0.0127974 -7.92728 -0.555125
RightShoulder  0 2.42657e-020 1.07489e-018
RightArm  -13.156 10.6972 84.8532
RightForeArm  39.7376 31.2993 6.1413
RightHand  -1.40895 20.7133 -7.33065
LeftUpLeg  -34.87 4.72826 -5.81394
LeftLeg  18.7365 -4.18749 -1.12738
LeftFoot  1.60412 -0.00174198 0.124422
LeftToes  -3.43996 9.37529e-007 1.1992e-007
